<?xml version="1.0" standalone="no"?>
<!DOCTYPE svg PUBLIC "-//W3C//DTD SVG 20010904//EN"
 "http://www.w3.org/TR/2001/REC-SVG-20010904/DTD/svg10.dtd">
<svg version="1.0" xmlns="http://www.w3.org/2000/svg"
 width="200.000000pt" height="200.000000pt" viewBox="0 0 200.000000 200.000000"
 preserveAspectRatio="xMidYMid meet">

<g transform="translate(0.000000,200.000000) scale(0.100000,-0.100000)"
fill="#000000" stroke="none">
<path d="M452 1888 c-9 -9 -12 -214 -12 -860 l0 -847 -111 -3 c-94 -3 -114 -6
-123 -21 -8 -12 -8 -22 0 -35 10 -15 35 -17 274 -17 239 0 264 2 274 17 8 13
8 23 0 35 -9 15 -29 18 -123 21 l-111 3 0 632 0 632 188 188 187 187 253 0
252 0 0 -160 0 -159 -50 -22 c-116 -50 -174 -172 -138 -293 17 -57 103 -142
152 -151 l37 -7 -3 -51 -3 -50 -145 -54 c-80 -30 -151 -60 -158 -65 -17 -15
-12 -48 10 -61 13 -9 46 0 145 37 70 27 134 51 141 54 9 3 12 -33 12 -160 l0
-164 -100 -119 c-55 -66 -100 -127 -100 -136 0 -20 20 -39 42 -39 11 0 53 43
105 105 47 58 89 105 93 105 4 0 46 -47 94 -105 85 -102 109 -118 134 -93 23
23 11 45 -88 163 l-100 119 0 164 c0 127 3 163 13 160 6 -3 70 -27 140 -54 99
-37 132 -46 145 -37 22 13 27 46 10 61 -7 5 -78 35 -158 65 l-145 54 -3 51
c-2 42 0 52 13 52 30 0 93 39 127 80 55 64 71 140 46 224 -15 52 -100 138
-148 152 l-35 10 -3 189 c-1 118 -7 193 -13 202 -16 18 -999 19 -1017 1z m328
-71 c0 -1 -58 -61 -130 -132 l-130 -130 0 133 0 132 130 0 c72 0 130 -1 130
-3z m723 -411 c103 -43 128 -177 48 -257 -65 -65 -157 -65 -222 0 -124 123 13
325 174 257z"/>
</g>
</svg>
