<?xml version="1.0" standalone="no"?>
<!DOCTYPE svg PUBLIC "-//W3C//DTD SVG 20010904//EN"
 "http://www.w3.org/TR/2001/REC-SVG-20010904/DTD/svg10.dtd">
<svg version="1.0" xmlns="http://www.w3.org/2000/svg"
 width="200.000000pt" height="368.000000pt" viewBox="0 0 200.000000 368.000000"
 preserveAspectRatio="xMidYMid meet">

<g transform="translate(0.000000,368.000000) scale(0.100000,-0.100000)"
fill="#000000" stroke="none">
<path d="M708 3339 c37 -40 46 -87 13 -69 -46 24 -57 0 -13 -28 22 -14 26 -23
24 -49 -3 -26 -8 -32 -30 -35 l-27 -3 29 -16 c22 -13 29 -24 31 -53 2 -35 0
-37 -21 -32 -15 4 -24 2 -24 -5 0 -6 9 -13 20 -16 13 -3 20 -14 20 -29 0 -13
5 -24 11 -24 7 0 9 10 7 25 -3 16 -1 25 7 25 18 0 30 -71 14 -80 -19 -12 0
-30 32 -30 16 0 60 11 98 24 65 23 68 23 79 6 9 -15 4 -38 -24 -117 -35 -95
-35 -101 -30 -202 4 -61 2 -108 -3 -115 -7 -8 -5 -12 7 -12 15 0 17 13 14 116
-3 92 -1 124 13 155 9 22 23 62 32 89 l14 48 23 -21 c25 -23 56 -27 74 -9 14
14 14 15 39 -47 20 -49 20 -52 3 -136 -27 -134 -34 -205 -19 -214 8 -6 10 -4
4 5 -6 10 -4 12 8 7 22 -8 22 2 1 18 -14 10 -15 17 -6 46 16 52 42 186 42 219
0 16 -9 52 -20 80 l-20 51 20 29 c11 16 26 27 33 25 7 -2 31 -9 54 -15 25 -6
43 -17 46 -28 4 -16 5 -16 6 1 0 9 8 17 17 17 12 0 15 -7 12 -25 -6 -30 12
-34 19 -4 5 16 12 19 42 17 33 -3 36 -6 36 -33 -1 -16 -4 -46 -7 -65 l-7 -35
14 32 c8 17 16 46 17 63 2 27 6 31 25 27 28 -5 31 9 3 18 -16 5 -20 15 -20 46
0 24 -4 38 -10 34 -5 -3 -10 -19 -10 -36 0 -30 -11 -35 -57 -23 -19 5 -23 13
-23 44 0 37 1 37 46 44 26 3 70 6 98 6 28 0 58 5 66 10 10 7 -7 10 -57 10
l-73 0 0 35 c0 39 16 48 23 13 4 -20 4 -20 6 4 1 21 7 28 31 33 39 9 40 29 1
22 -25 -5 -30 -3 -33 18 -3 14 2 31 11 41 15 15 15 16 -1 11 -10 -4 -19 -2
-19 3 -1 6 -3 15 -4 20 -1 6 -3 17 -4 26 0 8 -5 13 -10 9 -5 -3 -8 -22 -6 -43
3 -31 2 -29 -7 11 -15 61 -29 61 -22 -1 l5 -48 -44 -20 -44 -20 -11 25 -10 26
-1 -32 c-1 -17 -5 -34 -10 -37 -5 -4 -7 3 -4 15 13 49 -49 99 -99 80 -24 -9
-89 -3 -159 14 -19 5 -33 0 -57 -20 -17 -14 -31 -29 -29 -33 1 -4 -3 -8 -8 -9
-6 -1 -9 12 -8 30 l1 31 -19 -24 c-18 -22 -19 -22 -10 -3 13 27 14 33 2 33 -5
0 -12 -9 -16 -20 -6 -19 -7 -19 -35 2 -16 12 -27 25 -24 30 3 5 -2 8 -12 6
-16 -3 -19 3 -17 37 2 37 1 39 -12 21 -8 -11 -15 -24 -15 -30 0 -5 -10 0 -22
11 -41 36 -54 37 -20 2z m72 -85 c0 -8 -4 -14 -10 -14 -5 0 -10 9 -10 21 0 11
5 17 10 14 6 -3 10 -13 10 -21z m245 -6 c27 -12 41 -45 32 -77 -4 -16 -1 -18
22 -11 14 4 32 5 40 2 8 -3 11 0 7 6 -14 23 33 82 65 82 27 0 59 -36 59 -67 0
-15 -9 -36 -20 -48 l-21 -22 30 -13 c16 -6 35 -9 42 -4 8 4 10 3 5 -4 -4 -7
-2 -12 3 -12 6 0 11 4 11 9 0 5 7 11 15 15 10 4 15 -1 15 -14 0 -15 -7 -20
-27 -20 -39 0 -104 -24 -149 -55 -47 -32 -88 -29 -146 12 -36 25 -48 27 -131
28 -91 0 -91 0 -94 26 -2 26 -1 26 70 25 43 0 82 5 95 12 22 13 23 15 7 32
-25 27 -16 81 15 97 30 15 24 15 55 1z m-194 -18 c13 -10 21 -19 17 -20 -14 0
-58 23 -58 32 0 14 16 9 41 -12z m-61 -51 c0 -24 -4 -38 -10 -34 -5 3 -10 22
-10 41 0 19 5 34 10 34 6 0 10 -18 10 -41z m660 6 c0 -14 -2 -25 -4 -25 -2 0
-6 11 -8 25 -3 14 -1 25 3 25 5 0 9 -11 9 -25z m-611 3 c23 -14 16 -48 -10
-48 -14 0 -19 7 -19 30 0 33 2 35 29 18z m579 -33 c-2 -2 -14 -5 -27 -7 -35
-5 -37 18 -4 36 26 13 28 13 31 -6 2 -11 2 -21 0 -23z m-535 -5 c-3 -11 -7
-20 -9 -20 -2 0 -4 9 -4 20 0 11 4 20 9 20 5 0 7 -9 4 -20z m30 -10 c3 -11 1
-20 -4 -20 -5 0 -9 9 -9 20 0 11 2 20 4 20 2 0 6 -9 9 -20z m426 -1 c-16 -10
-23 -4 -14 10 3 6 11 8 17 5 6 -4 5 -9 -3 -15z m91 -39 c0 -28 -3 -30 -35 -30
-28 0 -35 4 -35 20 0 21 24 39 53 40 12 0 17 -8 17 -30z m-640 -15 c0 -19 -4
-35 -10 -35 -5 0 -10 16 -10 35 0 19 5 35 10 35 6 0 10 -16 10 -35z m120 -112
c-90 -30 -100 -30 -100 7 0 17 -1 33 -2 38 -2 4 31 9 72 12 68 5 76 3 85 -15
10 -18 5 -22 -55 -42z m440 32 c0 -23 -5 -35 -14 -35 -8 0 -15 14 -18 35 -3
29 -1 35 14 35 14 0 18 -8 18 -35z m-50 0 c0 -27 -12 -30 -68 -19 -27 6 -29 8
-19 25 8 13 23 19 49 19 34 0 38 -3 38 -25z"/>
<path d="M980 3195 c0 -10 7 -15 18 -13 21 4 19 22 -2 26 -10 2 -16 -3 -16
-13z"/>
<path d="M1170 3185 c0 -10 7 -15 18 -13 21 4 19 22 -2 26 -10 2 -16 -3 -16
-13z"/>
<path d="M1135 2060 c-8 -16 -15 -31 -15 -35 0 -13 28 -3 45 15 22 25 9 26
-18 3 -19 -18 -20 -18 -3 15 9 17 14 32 12 32 -3 0 -12 -13 -21 -30z"/>
<path d="M846 2065 c7 -18 6 -18 -9 -6 -9 7 -17 9 -17 3 0 -14 28 -23 36 -11
3 6 1 16 -5 22 -9 9 -10 7 -5 -8z"/>
<path d="M837 1834 c-14 -14 -7 -35 11 -32 9 2 17 10 17 17 0 16 -18 25 -28
15z"/>
<path d="M1096 1823 c-11 -11 -6 -23 9 -23 8 0 15 4 15 9 0 13 -16 22 -24 14z"/>
</g>
</svg>
